<svg xmlns="http://www.w3.org/2000/svg" fill="none" viewBox="0 0 416 342">
  <path d="M240.646 85.677c-.155.281-.31.571-.484.852-.077.145-.174.29-.242.426-.048.126-.097.27-.135.406-.175.571-.329 1.19-.475 1.79l-.89 3.65a159.477 159.477 0 00-.803 3.657c-.155.813-.31 1.617-.407 2.468l29.924-29.11a60.602 60.602 0 01-5.216-18.146 392.85 392.85 0 01-18.611 8.274C229.981 65.47 226.4 94.078 226.4 94.078s6.146 1.355 9.61.348c.057-.702.157-1.4.3-2.09a17.906 17.906 0 011.22-3.813c.277-.626.611-1.225.997-1.79a6.04 6.04 0 01.338-.446l.262-.397c.183-.261.348-.532.513-.803 1.354-2.177 2.642-4.432 3.909-6.678l3.823-6.764a313.087 313.087 0 01-3.223 7.074c-1.122 2.333-2.245 4.665-3.503 6.958zm-12.32 8.13a1.45 1.45 0 01-1.401-1.452 1.45 1.45 0 011.401-1.452 1.453 1.453 0 010 2.904zm4.762 0a1.453 1.453 0 010-2.904 1.45 1.45 0 011.401 1.452 1.45 1.45 0 01-1.401 1.452z" fill="#020202"/>
  <path d="M237.13 100.25a16.899 16.899 0 005.073 1.328c.839.072 1.684.04 2.515-.094.861-.105 1.699-.373 2.65-.584a5.824 5.824 0 01-2.346 1.675 6.251 6.251 0 01-2.93.45 6.898 6.898 0 01-2.825-.846 5.845 5.845 0 01-2.137-1.929zm-85.548 46.272a34.68 34.68 0 01-.232-3.997l.232 3.997z" fill="#000"/>
  <path d="M151.65 147.702l-.068-1.181a19.192 19.192 0 002.323 7.539c-2.449-3.59-2.255-6.358-2.255-6.358zm2.342 6.494c.31.455.668.919 1.064 1.393a8.835 8.835 0 01-1.064-1.393zm204.084 17.72L0 169.487v-5.855c29.798.474 59.595.832 89.393 1.074 29.798.329 59.595.435 89.393.61 29.798.212 59.605.222 89.403.28l44.701.049 44.353-.097.833 6.368z" fill="#000"/>
  <path d="M415.116 130.475v6.01l-57.041 35.43-.106-6.493 14.265-8.672 14.303-8.739 28.579-17.536z" fill="#000"/>
  <path d="M223.914 146.701l1.935.035" stroke="#020202" stroke-width="1.936" stroke-miterlimit="10"/>
  <path d="M229.831 146.809l45.785.825" stroke="#020202" stroke-width="1.936" stroke-miterlimit="10" stroke-dasharray="3.98 3.98"/>
  <path d="M277.606 147.67l1.936.035m-53.511-4.465l1.936.034" stroke="#020202" stroke-width="1.936" stroke-miterlimit="10"/>
  <path d="M231.948 143.346l45.785.826" stroke="#020202" stroke-width="1.936" stroke-miterlimit="10" stroke-dasharray="3.98 3.98"/>
  <path d="M279.724 144.207l1.935.035m-53.073-4.422l1.936.034" stroke="#020202" stroke-width="1.936" stroke-miterlimit="10"/>
  <path d="M234.503 139.926l45.785.826" stroke="#020202" stroke-width="1.936" stroke-miterlimit="10" stroke-dasharray="3.98 3.98"/>
  <path d="M282.279 140.787l1.935.035" stroke="#020202" stroke-width="1.936" stroke-miterlimit="10"/>
  <path d="M63.72 136.036c.497 14.038.826 28.076 1.246 42.114l.934 42.114c.171 7.019.369 14.038.592 21.057a393.05 393.05 0 01.031 21.057l-.365 10.528c-.186 3.51-.31 7.019-.559 10.529-.433 7.019-.987 14.038-1.88 21.057a.315.315 0 01-.623 0c-.892-7.019-1.446-14.038-1.88-21.057-.249-3.51-.372-7.019-.558-10.529l-.366-10.528c-.18-7.019-.17-14.038.032-21.057.23-7.019.428-14.038.592-21.057l.934-42.114c.42-14.038.749-28.076 1.246-42.114a.31.31 0 01.528-.213.311.311 0 01.095.213zM7.975 171.808c.497 14.038.827 28.076 1.246 42.114l.935 42.114c.17 7.019.368 14.038.592 21.057.198 7.019.209 14.038.03 21.057l-.365 10.528c-.185 3.51-.309 7.019-.558 10.529-.434 7.019-.987 14.038-1.88 21.057a.314.314 0 01-.623 0c-.893-7.019-1.447-14.038-1.88-21.057-.25-3.51-.373-7.019-.558-10.529l-.366-10.528c-.18-7.019-.17-14.038.031-21.057.231-7.019.428-14.038.592-21.057l.935-42.114c.42-14.038.748-28.076 1.246-42.114a.312.312 0 01.623 0zm399.883-35.772c.498 14.038.827 28.076 1.246 42.114l.935 42.114c.171 7.019.368 14.038.592 21.057.198 7.019.209 14.038.031 21.057l-.366 10.528c-.185 3.51-.309 7.019-.558 10.529-.433 7.019-.987 14.038-1.88 21.057a.313.313 0 01-.623 0c-.893-7.019-1.446-14.038-1.88-21.057-.249-3.51-.373-7.019-.558-10.529l-.366-10.528c-.18-7.019-.17-14.038.031-21.057.231-7.019.429-14.038.592-21.057l.935-42.114c.419-14.038.748-28.076 1.246-42.114a.311.311 0 01.623 0zm-55.743 35.772c.497 14.038.826 28.076 1.246 42.114l.934 42.114c.171 7.019.369 14.038.592 21.057.199 7.019.209 14.038.031 21.057l-.366 10.528c-.185 3.51-.308 7.019-.558 10.529-.433 7.019-.987 14.038-1.88 21.057a.312.312 0 01-.311.274.318.318 0 01-.208-.078.318.318 0 01-.104-.196c-.893-7.019-1.446-14.038-1.879-21.057-.25-3.51-.373-7.019-.559-10.529l-.366-10.528c-.18-7.019-.17-14.038.032-21.057.231-7.019.428-14.038.591-21.057l.935-42.114c.42-14.038.749-28.076 1.246-42.114a.312.312 0 01.623 0h.001zm-78.264-127.68a6.73 6.73 0 01-4.382-1.811 18.24 18.24 0 01-3.186-3.563 33.5 33.5 0 01-2.445-4.059 41.003 41.003 0 01-1.946-4.326l1.545.41a2.513 2.513 0 01-1.938.583 3.536 3.536 0 01-1.594-.674 5.819 5.819 0 01-1.861-2.331 5.934 5.934 0 01-.566-2.876c.057-1 .403-1.964.997-2.771a6.372 6.372 0 012.158-1.81 3.97 3.97 0 011.413-.444 2.3 2.3 0 011.536.37 4.323 4.323 0 011.426 2.391c.226.846.364 1.712.412 2.586l-.265-.317a4.894 4.894 0 003.246-.45 9.84 9.84 0 002.717-2.07 26.977 26.977 0 003.947-5.738 82.458 82.458 0 003.024-6.342 79.712 79.712 0 002.504-6.555 1.12 1.12 0 011.717-.561c.191.137.335.33.41.553l.015.047a138.012 138.012 0 003.369 9.148c.643 1.484 1.315 2.95 2.07 4.348a11.142 11.142 0 002.734 3.51l.104.076a.766.766 0 01.315.554c.188 2.09.238 4.162.223 6.248a28.687 28.687 0 01-.204 3.128 9.542 9.542 0 01-.771 3.057.11.11 0 01-.204-.077l.002-.009c.23-.985.32-1.997.269-3.008-.026-1.017-.113-2.033-.197-3.049-.183-2.029-.492-4.065-.824-6.06l.419.628a11.767 11.767 0 01-3.631-3.95 39.587 39.587 0 01-2.376-4.486 67.671 67.671 0 01-3.452-9.417l2.141.04a81.446 81.446 0 01-2.819 6.659 49.978 49.978 0 01-3.536 6.3 30.444 30.444 0 01-4.631 5.593 12.15 12.15 0 01-3.042 2.068 5.93 5.93 0 01-3.686.478.332.332 0 01-.265-.299l-.001-.018a9.647 9.647 0 00-.461-2.391 3.289 3.289 0 00-1.21-1.817c-1.084-.553-2.68.76-3.381 1.9a4.088 4.088 0 00.056 4.006c.31.611.753 1.145 1.298 1.561.208.16.451.267.708.315a.524.524 0 00.422-.1l.086-.059a.962.962 0 011.459.47c.494 1.4 1.106 2.816 1.72 4.198a47.1 47.1 0 002.077 4.04 21.51 21.51 0 002.621 3.652 6.68 6.68 0 003.726 2.303.108.108 0 01.04.015.125.125 0 01.032.029.104.104 0 01.019.082.109.109 0 01-.035.064.114.114 0 01-.068.029z" fill="#020202"/>
  <path d="M268.442 40.352c.094.771.174 1.542.245 2.313.096.802.09 1.613-.018 2.413a8.934 8.934 0 01-2.047 4.487 9.083 9.083 0 01-1.9 1.674c-.35.23-.713.441-1.087.63l-1.038.518c-1.388.679-2.772 1.37-4.185 1.994-2.817 1.275-5.741 2.31-8.639 3.39a112.85 112.85 0 00-4.329 1.656 19.522 19.522 0 00-4.098 1.987 19.904 19.904 0 00-5.748 6.859 55.268 55.268 0 00-3.697 8.264 134.114 134.114 0 00-4.638 17.645l-.673-.954a40.87 40.87 0 005.117.975c.861.11 1.729.165 2.598.164a7.8 7.8 0 002.553-.39.107.107 0 01.084.001.104.104 0 01.059.06.114.114 0 01-.042.133 7.051 7.051 0 01-2.584.903c-.898.163-1.809.248-2.722.254-.908.019-1.816-.01-2.721-.085a29.841 29.841 0 01-2.716-.322.824.824 0 01-.68-.882l.007-.072c.294-3.113.8-6.202 1.516-9.246a59.132 59.132 0 012.809-8.95 42.03 42.03 0 014.342-8.37 23.641 23.641 0 016.731-6.61 31.346 31.346 0 014.232-2.004 69.981 69.981 0 004.175-1.992c2.756-1.387 5.46-2.88 8.246-4.188 1.387-.667 2.798-1.282 4.198-1.922l1.053-.474a8.234 8.234 0 002.601-1.733 8.396 8.396 0 002.166-3.625 9.715 9.715 0 00.365-2.188c.071-.77.151-1.542.246-2.313a.11.11 0 01.182-.07.106.106 0 01.037.07zm-31.313 59.898c.618 2.158.948 4.388.98 6.632.118 2.238.135 4.478.052 6.72a78.048 78.048 0 01-.474 6.718 38.45 38.45 0 01-1.256 6.727l-.968-1.282 13.713-.764 13.718-.65 13.721-.59c4.573-.218 9.147-.344 13.717-.746-2.238.509-4.512.874-6.784 1.196a171.16 171.16 0 01-6.832.874c-4.561.504-9.131.907-13.704 1.244-4.571.361-9.149.599-13.725.857-4.58.207-9.156.421-13.742.53h-.015a.987.987 0 01-.698-.27.966.966 0 01-.303-.685.982.982 0 01.048-.327 45.453 45.453 0 001.44-6.344c.357-2.174.616-4.373.852-6.574.212-2.204.406-4.414.511-6.631a30.62 30.62 0 00-.251-6.635z" fill="#020202"/>
  <path d="M292.694 127.188c-3.91.664-21.252.307-30.223.072 0 0 19.188-16.066 19.249-22.093 0 0 6.688 17.213 8.613 17.848l2.361 4.173zm-65.292-32.92c-.2 1.716-.5 3.403-.833 5.081-.326 1.68-.707 3.343-1.109 5.001a132.016 132.016 0 01-1.304 4.944c-.437 1.648-.972 3.267-1.457 4.901l-.01.032a.819.819 0 01-.098.215 148.79 148.79 0 01-3.57 5.336c-1.249 1.743-2.524 3.472-3.929 5.122.794-2.017 1.72-3.954 2.67-5.877a148.905 148.905 0 013.028-5.662l-.108.247c.468-1.639.884-3.292 1.4-4.917.482-1.634.999-3.258 1.55-4.873a112.618 112.618 0 011.747-4.815c.619-1.595 1.271-3.18 2.023-4.735zm8.923 27.53a4.752 4.752 0 01.139 3.908 1.727 1.727 0 01-.959 1.034c.091-.405.133-.82.127-1.235.006-.404.036-.805.07-1.212a7.524 7.524 0 01.623-2.495z" fill="#020202"/>
  <path d="M258.263 127.189c2.5-.995 4.878-2.27 7.089-3.803a47.69 47.69 0 006.125-5.03c.938-.933 1.886-1.859 2.739-2.88.937-.949 1.712-2.034 2.586-3.052.45-.5.814-1.063 1.224-1.597l1.227-1.613c.791-1.098 1.539-2.231 2.406-3.319a48.635 48.635 0 01-1.477 3.864c-.642 1.217-1.217 2.49-1.979 3.649a34.955 34.955 0 01-5.201 6.523 30.14 30.14 0 01-6.778 4.921 19.093 19.093 0 01-7.961 2.337zm-11.002-69.505c1.051-6.153 2.337-12.239 3.646-18.31l1.971-9.085c.336-1.509.681-3.013.928-4.513.114-.74.163-1.438.255-2.299a21.64 21.64 0 01.452-2.355 51.86 51.86 0 013.125-8.885 33.83 33.83 0 012.261-4.143 22.21 22.21 0 012.934-3.76 13.538 13.538 0 018.656-4.29 15.445 15.445 0 012.499.013c.822.094 1.636.247 2.436.456a23.109 23.109 0 014.569 1.747l-.755-.1a14.13 14.13 0 015.215-.082 10.89 10.89 0 014.848 2.097 11.7 11.7 0 011.909 1.88c.253.362.479.742.717 1.114.252.358.46.745.622 1.153.372.776.66 1.59.859 2.428.227.813.385 1.644.471 2.483.062.831.2 1.66.191 2.487l-.069 2.472c-.08 1.618-.253 3.156-.288 4.747a45.397 45.397 0 00.078 4.724 8.298 8.298 0 001.242 4.41l.01.015a.107.107 0 01.023.074.11.11 0 01-.033.07.11.11 0 01-.146.006 5.08 5.08 0 01-1.317-2.09 18.243 18.243 0 01-.636-2.365 35.26 35.26 0 01-.562-4.827c-.107-1.602-.105-3.256-.113-4.828l-.089-2.317c-.048-.768-.204-1.518-.296-2.274a12.985 12.985 0 00-.525-2.192 11.964 11.964 0 00-.805-2.05 4.063 4.063 0 00-.536-.934c-.201-.294-.389-.6-.596-.887a9.557 9.557 0 00-1.533-1.428 8.546 8.546 0 00-3.848-1.675 12.403 12.403 0 00-4.308-.075l-.068.012a1.07 1.07 0 01-.687-.112 16.625 16.625 0 00-8.369-2.292 12.526 12.526 0 00-7.967 3.277 22.614 22.614 0 00-5.381 7.346 31.046 31.046 0 00-2.719 8.794 20.372 20.372 0 00-.226 2.26c-.013.69.002 1.55-.052 2.355a58.192 58.192 0 01-.57 4.697c-.489 3.096-1.202 6.136-1.939 9.165-1.492 6.054-3.202 12.047-5.271 17.941a.111.111 0 01-.132.07.11.11 0 01-.081-.125zm-38.978 71.069a7.216 7.216 0 011.276-1.957 8.189 8.189 0 011.854-1.53 10.295 10.295 0 014.627-1.385l-.08.006a13.722 13.722 0 013.352.048c1.099.15 2.175.435 3.204.85 1.029.419 1.985 1 2.832 1.72a7.965 7.965 0 012 2.548 17.657 17.657 0 00-2.654-1.545 14.23 14.23 0 00-2.766-.948 20.743 20.743 0 00-5.721-.547l-.081.006c-1.376 0-2.743.215-4.053.638-.669.225-1.315.511-1.931.857-.646.371-1.268.785-1.859 1.239z" fill="#020202"/>
  <path d="M227.402 136.485c-6.559 15.758-16.721 9.542-16.721 9.542s4.561-2.749 5.345-15.934c0 0 1.981-2.899 4.538 0a71.12 71.12 0 006.838 6.392z" fill="#fff"/>
  <path d="M227.495 136.462a42.003 42.003 0 01-.847 2.709c-.378.901-.809 1.708-1.244 2.561-.244.407-.526.793-.799 1.186-.26.404-.552.787-.872 1.145l-1.007 1.052c-.363.331-.745.64-1.144.927a8.98 8.98 0 01-5.563 1.725 12.412 12.412 0 01-5.493-1.488.28.28 0 01-.104-.095.272.272 0 01-.046-.133.28.28 0 01.112-.248l.04-.03a7.889 7.889 0 002.285-3.368 22.32 22.32 0 001.156-4.024c.165-.676.256-1.377.399-2.058.099-.695.209-1.387.292-2.084.062-.701.142-1.398.191-2.1.027-.704.091-1.405.143-2.107l.005-.06a.862.862 0 01.174-.462 4.09 4.09 0 011.914-1.497 3.2 3.2 0 012.569.147c.653.359 1.224.85 1.675 1.443.38.458.767.918 1.166 1.374.8.908 1.627 1.809 2.461 2.709l1.25 1.359c.431.477.809.851 1.287 1.417zm-.188.047a13.805 13.805 0 01-1.531-.963 31.813 31.813 0 01-1.519-1.079 40.162 40.162 0 01-2.898-2.363c-.47-.413-.927-.849-1.368-1.306a3.82 3.82 0 00-1.164-.874 1.173 1.173 0 00-1.008-.01 2.665 2.665 0 00-.94.762l.178-.521c-.063.728-.113 1.457-.201 2.183-.093.726-.218 1.45-.326 2.173-.129.722-.285 1.441-.432 2.16-.195.712-.352 1.429-.599 2.127a21.024 21.024 0 01-1.818 4.039 11.48 11.48 0 01-2.848 3.443l.002-.505c.778.424 1.62.717 2.494.866.436.071.878.103 1.321.094.436.009.872-.026 1.302-.103a11.183 11.183 0 004.624-2.007 18.13 18.13 0 003.699-3.651c.489-.733 1.059-1.47 1.541-2.189l1.491-2.276zm-5.617-22.607a5.354 5.354 0 011.763-.677 8.761 8.761 0 011.855-.195 7.505 7.505 0 013.614.872 12.49 12.49 0 01-1.84.19c-.599.028-1.189.032-1.779.034a27.108 27.108 0 01-3.613-.224zM173.27 170.7a7.688 7.688 0 00-2.68 1.26 17.4 17.4 0 00-2.294 1.921 38.787 38.787 0 00-3.921 4.56 111.898 111.898 0 00-6.55 10.144c-4.056 6.972-7.594 14.239-11.083 21.519-3.464 7.296-6.734 14.686-9.884 22.126-3.159 7.435-6.3 14.891-9.242 22.405l-.167-.914a153.705 153.705 0 008.607 8.943 112.576 112.576 0 009.381 8.128 41.1 41.1 0 0010.61 6.213c1.874.75 3.914.983 5.908.673a6.524 6.524 0 004.49-3.539l.004-.007a.331.331 0 01.246-.176 19.623 19.623 0 015.726.073c1.899.281 3.736.888 5.429 1.792.848.454 1.653.984 2.404 1.585a15.3 15.3 0 012.023 2.049c.62.735 1.17 1.525 1.645 2.36.493.823.829 1.726 1.249 2.586l-.302-.249a32.883 32.883 0 0012.223-1.175 47.381 47.381 0 0011.356-4.847l2.616-1.656c.881-.538 1.667-1.22 2.504-1.821a57.163 57.163 0 004.746-3.973c.798-.656 1.483-1.436 2.212-2.167l2.163-2.219c1.353-1.562 2.659-3.167 3.992-4.746l-.19.685-4.363-32.642-2.147-16.326-2.061-16.336a1.127 1.127 0 01.75-1.21c.162-.057.335-.076.506-.056l.015.002c7.784.91 15.613 1.395 23.45 1.454 7.838.13 15.675-.341 23.441-1.41 7.714-1.155 15.446-2.931 22.376-6.529a32.164 32.164 0 009.253-6.993 23.454 23.454 0 005.339-10.289.105.105 0 01.048-.068c.024-.015.053-.021.081-.015a.111.111 0 01.069.047.106.106 0 01.016.081 23.898 23.898 0 01-5.029 10.691 31.665 31.665 0 01-9.249 7.519 56.469 56.469 0 01-11.025 4.58 87.179 87.179 0 01-11.617 2.668 155.12 155.12 0 01-23.706 1.826c-3.964.036-7.926-.077-11.882-.302-3.961-.228-7.894-.535-11.864-1.019l1.27-1.264 2.119 16.329 2.033 16.34L228.312 262l.006.047a.832.832 0 01-.196.639c-1.388 1.595-2.75 3.212-4.16 4.785l-2.251 2.237c-.73.766-1.5 1.492-2.306 2.178a58.421 58.421 0 01-4.965 3.951c-.875.597-1.695 1.271-2.613 1.802l-2.724 1.631a49.4 49.4 0 01-11.754 4.703 35.02 35.02 0 01-12.62.964.356.356 0 01-.277-.197l-.025-.053c-.399-.826-.713-1.7-1.179-2.489a14.87 14.87 0 00-1.551-2.264 14.582 14.582 0 00-1.908-1.965 14.948 14.948 0 00-2.276-1.526 16.078 16.078 0 00-5.195-1.76 18.456 18.456 0 00-5.493-.027l.249-.183-.87 1.37c-.379.392-.724.823-1.139 1.178a6.866 6.866 0 01-2.944 1.418 12.018 12.018 0 01-6.346-.634 44.568 44.568 0 01-11.013-6.102 112.533 112.533 0 01-9.706-7.968 155.024 155.024 0 01-8.944-8.824.86.86 0 01-.175-.896l.008-.018c2.9-7.577 5.916-15.091 9.129-22.532 3.235-7.429 6.591-14.807 10.142-22.096 3.547-7.289 7.383-14.448 11.611-21.381a94.94 94.94 0 016.952-10.011 39.36 39.36 0 014.165-4.475 16.141 16.141 0 012.442-1.857 7.971 7.971 0 012.844-1.161.107.107 0 01.081.019.107.107 0 01.044.069.106.106 0 01-.016.081.111.111 0 01-.069.047zM326.899 63.197a15.218 15.218 0 014.991-.782 13.707 13.707 0 015.065.949 11.727 11.727 0 014.259 3.078 14.893 14.893 0 012.663 4.54 28.824 28.824 0 011.622 10.186 82.294 82.294 0 01-.835 10.124c-.873 6.655-1.927 13.292-3.348 19.859a119.107 119.107 0 01-5.627 19.328 134.84 134.84 0 002.176-9.792c.645-3.277 1.214-6.566 1.769-9.856a559.952 559.952 0 002.856-19.817c.501-3.267.814-6.56.938-9.864a29.027 29.027 0 00-1.157-9.593 11.922 11.922 0 00-5.764-7.223 15.27 15.27 0 00-9.608-1.137z" fill="#020202"/>
  <path d="M219.946 203.503c6.966 1.424 13.921 2.74 20.897 3.895l10.475 1.638c3.491.561 7 1.024 10.525 1.391 3.527.318 7.071.418 10.612.3a78.52 78.52 0 0010.529-1.145 70.024 70.024 0 0010.184-2.567 41.834 41.834 0 009.384-4.371l.041-.023.142-.07a19.879 19.879 0 003.766-2.525 39.993 39.993 0 003.429-3.247 49.366 49.366 0 005.714-7.661 79.03 79.03 0 004.544-8.539l1.896-4.488c.569-1.524 1.124-3.056 1.723-4.581l.002-.005a.11.11 0 01.135-.065.106.106 0 01.062.05.11.11 0 01.013.079c-.36 1.596-.763 3.186-1.154 4.784-.461 1.575-.97 3.14-1.491 4.703a61.072 61.072 0 01-4.036 9.054 44.368 44.368 0 01-5.705 8.213c-.575.615-1.146 1.236-1.743 1.832-.635.561-1.227 1.164-1.906 1.682a18.752 18.752 0 01-4.404 2.828l.183-.092a49.122 49.122 0 01-20.595 6.328c-7.111.562-14.25.709-21.378.438a169.822 169.822 0 01-10.687-.542c-3.556-.322-7.087-.862-10.59-1.527a128.21 128.21 0 01-20.63-5.557.107.107 0 01-.061-.057.107.107 0 01.048-.142.117.117 0 01.076-.011zm5.361-76.315c5.658-.454 11.316-.691 16.975-.853 5.658-.175 11.316-.221 16.975-.243 5.658.019 11.316.066 16.975.24 5.658.161 11.317.399 16.975.856-5.658.456-11.317.695-16.975.856-5.659.174-11.317.221-16.975.24-5.659-.022-11.317-.069-16.975-.244-5.659-.161-11.317-.398-16.975-.852z" fill="#020202"/>
  <path d="M317.023 130.476l-2.846-.049a14.537 14.537 0 01-7.916 3.455 13.45 13.45 0 01-10.51-3.745l-68.402-1.084a12.613 12.613 0 012.71 6.91s-1.133 4.432-9.91-6.378c0 0-3.494-1.383-4.23.726-.725 2.12-.077 18.852-10.81 16.665 0 0-1.799-11.923 3.175-18.223l-8.858-.141v1.329a6.098 6.098 0 01-3.762 5.63 6.084 6.084 0 01-2.333.464h-42.353l.372 6.49c0-.426.019-.668.019-.668h17.343l-13.656 13.732h-21.252a7.115 7.115 0 01-7.113-7.026l-.155-12.528H84.608a6.099 6.099 0 01-4.31-1.785 6.092 6.092 0 01-1.785-4.309v-3.201H61.919L0 163.632c29.798-.262 59.595-.404 89.393-.426 29.807-.107 59.605 0 89.403.039 29.798.009 59.595.212 89.402.367l44.692.281 44.537.416 14.284-8.429 14.459-8.478 28.946-16.926h-98.093zm-33.089 20.807l-68.963-.494 4.074-4.277 8.072-9.368h67.705l-10.888 14.139z" fill="#000"/>
  <path d="M150.982 135.886c4.272-.148 8.544-.249 12.816-.348 4.272-.101 8.544-.218 12.816-.268l12.815-.197 3.204-.049c.26-.007.551-.004.784-.018.223-.007.444-.031.664-.069.436-.071.862-.2 1.265-.382a5.08 5.08 0 002.928-4.077l-.131-25.511c-.041-8.544-.015-17.088.077-25.632l.4-25.631.212-12.816a5.547 5.547 0 00-1.362-4.06 5.549 5.549 0 00-3.844-1.884c-1.016-.043-2.122-.031-3.178-.039-17.088-.085-34.176.075-51.263.324-17.088.28-34.176.47-51.264.57l-3.204.02a4.822 4.822 0 00-2.388.612 4.695 4.695 0 00-2.372 4.045l.071 12.802.035 25.631-.149 25.632-.253 25.589a5.028 5.028 0 002.62 4.272 5.25 5.25 0 002.603.626l3.204.054 12.816.215c8.544.152 17.088.348 25.632.589a.144.144 0 01.141.145.146.146 0 01-.141.145c-8.544.241-17.088.438-25.632.589l-12.816.216-3.203.053a7.338 7.338 0 01-3.582-.758 7.14 7.14 0 01-3.91-6.062l-.277-25.673-.15-25.632.036-25.631.077-12.83a7.545 7.545 0 013.883-6.466 7.64 7.64 0 013.755-.932l3.204.019c17.088.085 34.176.275 51.264.57 17.087.25 34.175.41 51.263.325 1.079.006 2.111-.029 3.229-.007a6.549 6.549 0 013.273 1.03 6.66 6.66 0 012.321 2.549c.268.52.468 1.071.595 1.642a9.08 9.08 0 01.159 1.71l.212 12.816.4 25.631c.086 8.544.112 17.088.077 25.632l-.052 12.816-.052 6.408-.028 3.204-.014 1.602-.007.801a14.29 14.29 0 01-.05.919 7.172 7.172 0 01-4.322 5.775 7.078 7.078 0 01-1.807.487 6.893 6.893 0 01-.931.067c-.3.006-.543-.006-.818-.007l-3.204-.05-12.815-.196c-4.272-.05-8.544-.167-12.816-.268-4.272-.1-8.544-.201-12.816-.349a.145.145 0 01-.14-.145c0-.037.014-.074.04-.101a.146.146 0 01.1-.044z" fill="#020202"/>
  <path d="M149.445 83.221a13.668 13.668 0 01-3.006 8.679 10.787 10.787 0 01-8.679 3.809 12.537 12.537 0 01-8.436-4.052 13.485 13.485 0 01-3.739-8.435 11.655 11.655 0 013.261-8.914 12.69 12.69 0 014.047-2.835 11.873 11.873 0 019.701.08 10.846 10.846 0 013.861 2.974 13.568 13.568 0 012.99 8.694zm-.22 0a9.73 9.73 0 00-1.048-4.314 10.555 10.555 0 00-2.743-3.36 12.132 12.132 0 00-7.674-2.73 11.005 11.005 0 00-7.455 2.95 11.569 11.569 0 00-3.519 7.454 10.346 10.346 0 00.625 4.287 9.917 9.917 0 002.416 3.647 10.653 10.653 0 007.933 2.728 13.17 13.17 0 007.691-2.971 10.543 10.543 0 002.742-3.369 9.613 9.613 0 001.032-4.322zm41.426 43.964c-3.351.386-6.701.581-10.051.709-3.35.14-6.7.166-10.049.171-3.349-.031-6.698-.087-10.047-.255-3.348-.157-6.697-.382-10.045-.799 3.352-.389 6.702-.585 10.052-.712 3.35-.139 6.699-.166 10.049-.168 3.349.034 6.698.089 10.046.258 3.349.157 6.697.381 10.045.796zm-64.231-.281c-3.262.387-6.524.583-9.785.712-3.261.14-6.522.168-9.782.173-3.261-.03-6.521-.085-9.781-.253-3.26-.155-6.52-.38-9.779-.796 3.262-.389 6.524-.586 9.785-.714 3.261-.14 6.522-.168 9.783-.171 3.26.033 6.521.088 9.78.256 3.26.156 6.52.379 9.779.793zm40.34 147.401c1.239-5.558 2.736-11.042 4.337-16.494 1.592-5.455 3.342-10.861 5.179-16.24 1.879-5.364 3.829-10.708 6.054-15.953a128.05 128.05 0 013.552-7.779c.663-1.267 1.322-2.535 2.078-3.754a11.66 11.66 0 012.69-3.326 7.295 7.295 0 00-1.216 1.719 22.978 22.978 0 00-.938 1.894 75.133 75.133 0 00-1.631 3.907c-1.035 2.629-1.981 5.297-2.939 7.959l-2.802 8.017-2.777 8.032c-1.871 5.349-3.707 10.713-5.628 16.052-1.906 5.344-3.853 10.676-5.959 15.966z" fill="#020202"/>
  <path d="M184.799 284.543c-.648-4.721-1.081-9.451-1.438-14.183-.37-4.733-.612-9.47-.829-14.209-.176-4.74-.325-9.482-.346-14.228-.034-4.747.008-9.496.269-14.254.652 4.72 1.086 9.45 1.441 14.183.37 4.732.612 9.47.826 14.209.174 4.74.323 9.482.343 14.228.034 4.747-.008 9.496-.266 14.254zm92.32-257.584a1.645 1.645 0 001.127-2.79 1.645 1.645 0 00-1.127-.5 1.648 1.648 0 00-1.128 2.788c.297.308.701.487 1.128.502zm9.771 0a1.647 1.647 0 000-3.29 1.645 1.645 0 000 3.29zm2.863-5.396c-.506.081-1.016.136-1.527.163-.464.038-.896.039-1.331.048-.434.006-.867-.009-1.33-.033a9.44 9.44 0 01-1.537-.178c.307-.476.747-.85 1.266-1.077a3.818 3.818 0 013.194-.012c.527.218.97.6 1.265 1.089zm-11.351 0a7.59 7.59 0 01-1.308.268 8.407 8.407 0 01-2.218.001 6.943 6.943 0 01-1.311-.269 2.29 2.29 0 011.061-.99 2.9 2.9 0 011.36-.312 2.97 2.97 0 011.353.316c.453.203.827.55 1.063.986zm6.909 7.304a1.9 1.9 0 01-.609 1.395c-.381.372-.86.63-1.382.744a3.55 3.55 0 01-1.515-.011 3.265 3.265 0 01-1.33-.648 10.77 10.77 0 011.384-.207c.428-.076.841-.096 1.221-.204a4.935 4.935 0 002.231-1.069zm-6.264 6.665a1.917 1.917 0 011.106-1.046 2.845 2.845 0 011.563-.144c.501.098.976.304 1.391.603.404.293.737.674.971 1.116a10.789 10.789 0 01-1.356-.352c-.423-.096-.811-.24-1.203-.289a4.934 4.934 0 00-2.472.112zM254.896 210.33v79.668s16.58 6.565 26.763 0V210.33" fill="#020202"/>
  <path d="M306.175 290.402a3 3 0 01-1.148 2.088 9.942 9.942 0 01-2.051 1.336 26.713 26.713 0 01-4.578 1.744 73.293 73.293 0 01-9.587 2.059 146.16 146.16 0 01-19.566 1.617 141.209 141.209 0 01-19.665-.928 69.817 69.817 0 01-9.739-1.89 27.54 27.54 0 01-4.749-1.773 10.796 10.796 0 01-2.258-1.454 3.38 3.38 0 01-.001-5.598 10.8 10.8 0 012.258-1.455 27.602 27.602 0 014.75-1.773 69.02 69.02 0 019.739-1.892 140.438 140.438 0 0119.665-.928 145.67 145.67 0 0119.566 1.62 72.95 72.95 0 019.588 2.06 26.735 26.735 0 014.577 1.744 9.942 9.942 0 012.051 1.336 3 3 0 011.148 2.087zm0 0a3.005 3.005 0 00-1.16-2.074 9.935 9.935 0 00-2.055-1.316 26.738 26.738 0 00-4.582-1.707 68.617 68.617 0 00-9.605-1.861 140.009 140.009 0 00-19.528-.917 145.32 145.32 0 00-19.431 1.609 72.492 72.492 0 00-9.453 2.029 25.804 25.804 0 00-4.409 1.677 9.057 9.057 0 00-1.848 1.198 1.546 1.546 0 00-.823 1.363 1.546 1.546 0 00.822 1.363 9.015 9.015 0 001.848 1.198 25.85 25.85 0 004.41 1.678 71.728 71.728 0 009.452 2.031 144.677 144.677 0 0019.432 1.61 139.88 139.88 0 0019.529-.92 68.465 68.465 0 009.604-1.863 26.738 26.738 0 004.582-1.707 9.935 9.935 0 002.055-1.316 3.004 3.004 0 001.16-2.075zm10.266-239.883l-13.287-2.758v6.087a70.448 70.448 0 01-3.881 23.081l-3.075 8.868 10.298 18.817s21.481 1.648 23.426 1.484c0 0 3.9-53.14-13.481-55.58zm-12.233 42.437c-.135-1.53-.242-3.059-.251-4.597a23.593 23.593 0 01.319-4.597c.097 1.529.291 3.039.436 4.558l.464 4.539c.271 3.039.542 6.078.581 9.155a57.78 57.78 0 01-1.549-9.058zm4.791 8.913a1.454 1.454 0 01-.996-2.462c.262-.27.619-.429.996-.441a1.451 1.451 0 01.996 2.461 1.45 1.45 0 01-.996.442zm6.029.803a1.45 1.45 0 01-.993-2.46 1.45 1.45 0 01.993-.443 1.452 1.452 0 010 2.903zm5.652.31a1.454 1.454 0 01-.996-2.462c.262-.271.619-.429.996-.442a1.454 1.454 0 01.996 2.462 1.454 1.454 0 01-.996.442zm5.671.484a1.454 1.454 0 01-.996-2.462c.262-.271.619-.429.996-.442a1.454 1.454 0 01.996 2.462 1.454 1.454 0 01-.996.442z" fill="#020202"/>
  <path d="M294.466 44.416c1.511.38 2.993.873 4.431 1.474 1.432.583 2.827 1.17 4.26 1.874a11.933 11.933 0 01-4.619-.976 15.017 15.017 0 01-4.072-2.372zm-27.332 25.396a42.389 42.389 0 013.79-5.651 42.019 42.019 0 014.552-5.057 41.943 41.943 0 01-3.789 5.651 42.398 42.398 0 01-4.553 5.057zM131.298 254.705a1.45 1.45 0 001.402-1.452 1.452 1.452 0 00-1.402-1.452 1.455 1.455 0 00-1.402 1.452 1.452 1.452 0 001.402 1.452zm4.703 5.052a1.453 1.453 0 000-2.904 1.45 1.45 0 00-1.402 1.452 1.452 1.452 0 001.402 1.452zm5.4 5.051a1.452 1.452 0 000-2.903 1.456 1.456 0 00-1.402 1.452 1.452 1.452 0 001.402 1.451zm5.923 4.878a1.455 1.455 0 001.402-1.452 1.454 1.454 0 00-1.402-1.451 1.45 1.45 0 00-1.402 1.451 1.45 1.45 0 001.402 1.452zm6.794 4.355a1.45 1.45 0 001.402-1.452 1.452 1.452 0 00-1.402-1.451 1.454 1.454 0 00-1.402 1.451 1.452 1.452 0 001.402 1.452zm7.491 1.219a1.451 1.451 0 000-2.903 1.456 1.456 0 00-1.403 1.452 1.452 1.452 0 001.403 1.451zm7.664-3.31a1.452 1.452 0 000-2.903 1.45 1.45 0 00-1.402 1.452 1.452 1.452 0 001.402 1.451zm6.62 1.568a1.45 1.45 0 001.402-1.451 1.452 1.452 0 00-1.402-1.452 1.456 1.456 0 00-1.403 1.452 1.456 1.456 0 001.403 1.451zm5.923 3.31a1.456 1.456 0 001.402-1.452 1.452 1.452 0 00-1.402-1.451 1.452 1.452 0 000 2.903zm5.574 6.097a1.454 1.454 0 00.994-2.461 1.45 1.45 0 00-.994-.442 1.454 1.454 0 00-.995 2.461c.262.27.619.429.995.442zm7.142-1.045a1.455 1.455 0 001.403-1.452 1.456 1.456 0 00-1.403-1.451 1.452 1.452 0 000 2.903zm7.142-1.916a1.453 1.453 0 000-2.904 1.45 1.45 0 00-1.402 1.452 1.45 1.45 0 001.402 1.452zm5.749-2.613a1.45 1.45 0 001.402-1.452 1.45 1.45 0 00-1.402-1.452 1.453 1.453 0 000 2.904zm6.271-4.355a1.45 1.45 0 001.402-1.452 1.45 1.45 0 00-1.402-1.452 1.45 1.45 0 00-1.402 1.452 1.45 1.45 0 001.402 1.452zm5.4-5.226a1.455 1.455 0 001.403-1.452 1.454 1.454 0 00-1.403-1.452 1.45 1.45 0 00-1.402 1.452 1.45 1.45 0 001.402 1.452zm4.355-5.226a1.455 1.455 0 001.403-1.452 1.456 1.456 0 00-1.403-1.452 1.45 1.45 0 00-1.402 1.452 1.45 1.45 0 001.402 1.452z" fill="#020202"/>
  <path d="M326.787 105.921a82.062 82.062 0 01-2.084 7.943 52.707 52.707 0 01-3.038 7.673 34.082 34.082 0 01-4.493 7.019 18.402 18.402 0 01-6.734 5.161 13.763 13.763 0 01-8.574.795 14.836 14.836 0 01-7.441-4.342l-.75-.796-.641-.824c-.424-.552-.869-1.09-1.255-1.665l-1.195-1.705-1.115-1.75a73.665 73.665 0 01-3.935-7.279 104.821 104.821 0 01-5.857-15.388 129.031 129.031 0 01-3.663-16.01 123.727 123.727 0 01-1.508-16.349 67.11 67.11 0 01.247-8.243c.156-1.373.317-2.749.608-4.114a17.798 17.798 0 011.268-4.108l-.059.13c.334-.939.748-1.847 1.236-2.716a17.004 17.004 0 011.663-2.465c.634-.786 1.351-1.5 2.138-2.13a12.039 12.039 0 012.634-1.584l-.234.139a19.246 19.246 0 002.189-2.28 11.985 11.985 0 001.636-2.592 5.42 5.42 0 00.41-1.345c.044-.585.118-1.167.222-1.745l.173-.535c.087-.198.191-.389.311-.569a2.032 2.032 0 011.372-.862 2.225 2.225 0 011.486.35c.207.13.393.292.551.48.255.284.403.65.418 1.032l-2.076-.058a4.93 4.93 0 01.241-1.215c.142-.451.381-.866.7-1.216a2.315 2.315 0 011.543-.712c.485-.019.968.072 1.413.267l-1.469.784c.058-.304.143-.602.254-.892.126-.35.314-.675.555-.96.19-.221.431-.393.703-.5.33-.13.693-.145 1.033-.046.43.138.814.394 1.106.739l-1.419-.18a3.608 3.608 0 011.178-.51c.279-.062.567-.07.849-.024.363.06.7.23.964.486.375.4.602.917.641 1.464.018.197.027.394.025.591l-.019.46a33.854 33.854 0 01-.376 3.594 15.99 15.99 0 01-2.568 7.022c-.446.587-.795.932-1.19 1.393l-1.155 1.307-2.311 2.612-4.649 5.2.267-.953a121.193 121.193 0 007.878 27.174c1.845 4.353 3.966 8.617 6.157 12.841l3.314 6.329 3.411 6.347a.095.095 0 01.008.068.092.092 0 01-.108.065.092.092 0 01-.056-.038l-.063-.095c-1.265-1.891-2.546-3.999-3.778-6.013-1.236-2.04-2.476-4.08-3.659-6.155-2.371-4.144-4.689-8.327-6.738-12.676a111.856 111.856 0 01-5.163-13.451 126.792 126.792 0 01-1.951-6.943 140.008 140.008 0 01-1.501-7.053 1.125 1.125 0 01.256-.941l.011-.014 4.611-5.253 2.319-2.614 1.16-1.307c.364-.42.831-.908 1.08-1.257a14.615 14.615 0 002.174-5.971 31.26 31.26 0 00.399-3.341l.023-.413c.008-.113-.01-.185-.007-.28-.01-.154-.082-.259.018-.129a.422.422 0 00.197.104c.052 0 .022 0-.017.004a1.606 1.606 0 00-.419.175l-.033.02a1.076 1.076 0 01-1.386-.201c-.077-.089-.208-.169-.061-.099.108.02.22.013.324-.024a.4.4 0 00.123-.075 1.138 1.138 0 00-.16.299 3.418 3.418 0 00-.155.504 1.087 1.087 0 01-.539.722 1.093 1.093 0 01-.897.075l-.033-.012a1.214 1.214 0 00-.444-.111c-.083.007-.079-.005-.153.057a1.21 1.21 0 00-.239.434 2.98 2.98 0 00-.145.653l-2.075-.058c.01.304.096.297.067.291a.329.329 0 00-.076-.066c-.074-.052-.136-.05-.096-.052.043.002.076-.06.014.015-.025.035-.055.105-.09.161l-.087.258c-.107.421-.1.818-.209 1.564a7.372 7.372 0 01-.581 1.833 13.514 13.514 0 01-1.981 2.998 20.952 20.952 0 01-2.498 2.469.86.86 0 01-.201.125l-.033.014c-.801.33-1.557.76-2.249 1.28a12.255 12.255 0 00-1.923 1.824 17.725 17.725 0 00-1.578 2.188 16.33 16.33 0 00-1.211 2.4c-.017.043-.038.09-.059.13a17.02 17.02 0 00-1.258 3.657 39.097 39.097 0 00-.735 3.96 65.896 65.896 0 00-.511 8.1c.012 5.442.436 10.875 1.268 16.252a96.692 96.692 0 003.992 15.799 104.893 104.893 0 006.392 14.945 91.969 91.969 0 004.043 7.012l1.103 1.689 1.162 1.643c.378.556.806 1.068 1.215 1.597l.619.789.656.691a12.917 12.917 0 006.449 3.864c2.489.596 5.102.398 7.473-.567a17.822 17.822 0 006.276-4.548 32.777 32.777 0 004.564-6.57 66.14 66.14 0 003.361-7.384c.974-2.535 1.809-5.129 2.6-7.74a.112.112 0 01.053-.066.093.093 0 01.041-.012.086.086 0 01.042.004.107.107 0 01.063.049c.014.023.019.051.014.078zm-191.581 156.87a36.166 36.166 0 01-6.784 13.806 21.99 21.99 0 01-5.961 5.147c-1.157.701-2.239 1.197-3.345 1.857l-3.289 1.907c-4.363 2.594-8.76 5.175-13.11 7.834a219.604 219.604 0 00-12.808 8.354l.127-.193a7.614 7.614 0 00.576 4.211 6.069 6.069 0 002.934 2.908c.314.162.642.298.979.405l1.034.278c.71.125 1.425.212 2.144.259.73-.019 1.455.019 2.184-.041l2.186-.233-.24.073c4.341-2.289 8.719-4.5 13.134-6.634 4.415-2.144 8.84-4.259 13.437-6.084a65.112 65.112 0 013.511-1.283l.93-.267a5.458 5.458 0 011.003-.228l.56-.075.278-.032.2-.009c.271.002.543-.015.812-.05a17.01 17.01 0 006.502-2.363 20.788 20.788 0 005.351-4.59 20.168 20.168 0 003.399-6.264l.012-.034.01-.022c.442-.848.869-1.714 1.269-2.587.42-.858.762-1.752 1.021-2.671l.002-.008a.092.092 0 01.041-.059.095.095 0 01.131.023.1.1 0 01.018.069c-.154.967-.41 1.915-.763 2.828a58.689 58.689 0 01-1.052 2.72l.021-.056a19.85 19.85 0 01-8.608 12.019 20.45 20.45 0 01-3.375 1.79 15.727 15.727 0 01-3.734 1.088c-.336.056-.676.09-1.016.102l-.259.013-.176.035-.348.062c-.266.04-.527.106-.78.198l-.83.254a63.223 63.223 0 00-3.365 1.299c-2.24.925-4.481 1.891-6.705 2.895-2.229.994-4.462 1.987-6.681 3.014l-13.288 6.223-.058.027a.504.504 0 01-.182.046l-2.314.125c-.773.018-1.555-.063-2.328-.092a20.597 20.597 0 01-2.312-.418l-1.128-.37a7.174 7.174 0 01-1.078-.511 6.938 6.938 0 01-3.167-3.473 8.519 8.519 0 01-.496-4.63.283.283 0 01.12-.189l.006-.004a634.275 634.275 0 0012.602-8.699c4.193-2.914 8.378-5.855 12.785-8.471 2.157-1.341 4.521-2.525 6.71-3.718a21.702 21.702 0 005.712-4.614 35.943 35.943 0 004.371-6.102 45.908 45.908 0 003.282-6.849l.003-.006a.091.091 0 01.048-.052.092.092 0 01.071-.005.1.1 0 01.056.045.093.093 0 01.008.071v.001z" fill="#020202"/>
  <path d="M89.734 301.442s-7.398 11.551 8.216 16.449c0 0 9.191 2.436 23.982-12.388 0 0 6.755-6.45 8.572-6.213l-2.207 5.988 7.939 2.735 9.634-4.445 4.803-20.113a21.311 21.311 0 01-16.002 12.274c-12.249 2.244-21.803 9.704-32.507 14.291 0 0-13.82 2.427-12.43-8.578z" fill="#020202"/>
  <path d="M99.568 294.807s9.317.679 10.88 11.141l8.888-4.21s-1.639-12.826-12.998-11.352c0 0-3.794-.651-6.77 4.421zm96.35-19.92a36.307 36.307 0 01.88 15.358 22.065 22.065 0 01-2.662 7.409c-.696 1.16-1.364 2.144-2.007 3.26l-1.919 3.281c-2.526 4.404-5.087 8.813-7.567 13.267a203.729 203.729 0 00-7.032 13.581l.016-.244a7.732 7.732 0 002.551 3.4 5.994 5.994 0 003.989 1.1 10.616 10.616 0 004.084-1.241 24.295 24.295 0 003.67-2.391l-.173.182c3.547-5.518 7.233-10.933 11.012-16.301 1.904-2.675 3.845-5.324 5.919-7.897a42.75 42.75 0 013.351-3.766 6.645 6.645 0 011.16-.906c.314-.174.617-.368.905-.583a12.937 12.937 0 001.678-1.547 20.494 20.494 0 004.45-8.229 22.101 22.101 0 00.542-9.505c-1.011-6.487-1.812-12.979-2.608-19.481a.1.1 0 01.019-.071.103.103 0 01.064-.037.095.095 0 01.071.019.095.095 0 01.038.063c1.016 6.465 1.961 12.954 3.135 19.377.771 3.276.798 6.684.081 9.972a21.514 21.514 0 01-4.446 9.078 14.562 14.562 0 01-1.859 1.849c-.357.29-.734.554-1.13.788a5.287 5.287 0 00-.748.63 41.222 41.222 0 00-3.103 3.627c-2.005 2.548-3.942 5.177-5.881 7.802-3.881 5.253-7.643 10.608-11.425 15.941l-.021.029a.65.65 0 01-.152.153 23.78 23.78 0 01-4.024 2.316 11.974 11.974 0 01-4.574 1.107 6.865 6.865 0 01-4.476-1.479 8.643 8.643 0 01-2.716-3.795.308.308 0 01.017-.244c2.318-4.549 4.537-9.141 6.715-13.763 2.219-4.599 4.417-9.217 6.968-13.662 1.223-2.227 2.691-4.425 4.055-6.513a21.961 21.961 0 002.675-6.846c.544-2.451.813-4.954.804-7.465a45.86 45.86 0 00-.515-7.577l-.001-.006a.101.101 0 01.017-.07.097.097 0 01.13-.027.093.093 0 01.042.057h.001z" fill="#020202"/>
  <path d="M175.319 330.901s-.763 13.696 15.241 10.285c0 0 9.202-2.397 14.795-22.577 0 0 2.712-8.937 4.41-9.624l1.022 6.299 8.258-1.52 6.204-8.607-5.704-19.876a21.297 21.297 0 01-7.901 18.555c-9.564 7.975-14.217 19.168-21.283 28.425 0 0-10.843 8.907-15.042-1.36z" fill="#020202"/>
  <path d="M180.622 320.286s8.447-3.989 14.951 4.354l5.67-8.035s-7.732-10.364-16.899-3.497c0 0-3.623 1.298-3.722 7.178zm-26.616-166.267c.026.028.05.059.071.091l.006.007.009.01 1.15 1.306c.03.034.049.075.056.119a.235.235 0 01-.015.131.243.243 0 01-.206.147l-.021.001a409.01 409.01 0 01-16.374.624l-4.093.07a11.568 11.568 0 01-2.208-.113 7.952 7.952 0 01-5.552-3.851 8.046 8.046 0 01-1.061-4.4c.08-5.46.284-10.921.336-16.38a319.216 319.216 0 00-.348-16.37 11.11 11.11 0 01.039-2.142 7.581 7.581 0 01.599-2.134 7.854 7.854 0 012.862-3.398 8.025 8.025 0 014.307-1.33l4.093-.076 4.094-.053a9.09 9.09 0 019.188 8.663 737.916 737.916 0 011.191 32.733v.036l-.001.025a6.939 6.939 0 00.088 1.583c.089.546.217 1.085.385 1.613a15.846 15.846 0 001.394 3.067.104.104 0 01.013.083.099.099 0 01-.018.039.107.107 0 01-.031.029.112.112 0 01-.078.014.118.118 0 01-.067-.041 16.7 16.7 0 01-.984-1.425c-.3-.5-.568-1.017-.802-1.551a12.078 12.078 0 01-.581-1.666 7.562 7.562 0 01-.276-1.812l-.001.061a721.47 721.47 0 01-2.566-32.654 7.289 7.289 0 00-.987-3.342 6.894 6.894 0 00-2.481-2.447 6.983 6.983 0 00-3.386-.931l-4.094-.053-4.093-.076a6.493 6.493 0 00-5.986 3.476 6.151 6.151 0 00-.622 1.756 9.925 9.925 0 00-.143 1.94c-.128 5.46-.111 10.918.05 16.374.187 5.456.527 10.91.742 16.366a6.628 6.628 0 00.909 3.434 6.393 6.393 0 002.54 2.385 5.949 5.949 0 001.664.574 9.617 9.617 0 001.872.121l4.093.071a409.01 409.01 0 0116.374.624l-.186.397-.979-1.481.015.018a1.942 1.942 0 01-.103-.181.105.105 0 01.033-.134.108.108 0 01.138.017l.032.036z" fill="#020202"/>
  <path d="M180.584 180.369a8.722 8.722 0 011.004 2.266 13.439 13.439 0 01.502 4.693 8.574 8.574 0 01-.507 2.426 8.579 8.579 0 01-1.006-2.265 13.059 13.059 0 01-.455-2.325 13.19 13.19 0 01-.042-2.368 8.69 8.69 0 01.504-2.427z" fill="#fff"/>
</svg>
